# xmcd
# 
# Track frame offsets:
#     150
#     40100
#     74497
#     113395
# 
# Disc length: 2094
# 
# Revision: 1
# Processed by: cddbd v1.5.2PL0 Copyright (c) Steve Scherf et al.
# Submitted via: BonkEnc v1.0.8
# 
DISCID=2b082c04
DTITLE=Art Farmer - Crawl Space
DYEAR=1977
DGENRE=Fusion
TTITLE0=Crawl space
TTITLE1=Siddhartha
TTITLE2=Chanson
TTITLE3=Petite belle
EXTD=YEAR: 1977
EXTT0=
EXTT1=
EXTT2=
EXTT3=
PLAYORDER=
